<svg width="375" height="548" viewBox="0 0 375 548" fill="none" xmlns="http://www.w3.org/2000/svg">
<style>
#jet-cat-v2 {
  animation: test 1s ease infinite;
}
@keyframes test {
  from {
    opacity: 0;
  }
  to {
    opacity: 1;
  }
}
</style>
<g id="Group 1">
<rect id="Rectangle 15" width="375" height="542" fill="#FEF6E4"/>
<ellipse id="Ellipse 41" cx="304.5" cy="137" rx="183.5" ry="183" fill="#8BD3DD"/>
<path id="cloud1" d="M126 266H249.5" stroke="#F582AE" stroke-opacity="0.52" stroke-width="19" stroke-linecap="round"/>
<path id="cloud3" d="M205 21H328.5" stroke="#F582AE" stroke-opacity="0.46" stroke-width="19" stroke-linecap="round"/>
<path id="cloud2" d="M229.5 177H387.5" stroke="#F582AE" stroke-opacity="0.46" stroke-width="19" stroke-linecap="round"/>
<g id="jet-cat-v2">
<g id="rainbow">
<rect id="Rectangle 3" x="319.636" y="113.703" width="5.72548" height="148.297" fill="#6FCF97"/>
<rect id="Rectangle 4" x="325.362" y="113.703" width="5.72548" height="148.297" fill="#EB5757"/>
<rect id="Rectangle 5" x="331.087" y="113.703" width="5.72548" height="148.297" fill="#F2C94C"/>
<rect id="Rectangle 6" x="336.813" y="113.703" width="5.72548" height="148.297" fill="#56CCF2"/>
<rect id="Rectangle 7" x="342.538" y="113.703" width="5.72548" height="148.297" fill="#F2994A"/>
<rect id="Rectangle 8" x="348.264" y="113.703" width="5.72548" height="148.297" fill="#BB6BD9"/>
</g>
<g id="rocket">
<path id="Rectangle 14" d="M312.308 79.9195C312.308 76.6572 313.183 73.437 314.927 70.7163C319.152 64.1265 322.943 59.3748 326.489 56.3047C330.027 53.2418 333.245 51.9166 336.361 52.0138C339.49 52.1114 342.724 53.6497 346.273 56.7576C349.822 59.8658 353.6 64.4687 357.805 70.5242C359.788 73.3811 360.797 76.8234 360.797 80.33V151.437C360.797 161.378 352.738 169.437 342.797 169.437H330.308C320.367 169.437 312.308 161.378 312.308 151.437V79.9195Z" fill="url(#paint0_linear)" stroke="#001858" stroke-width="2"/>
<path id="Vector 7" d="M326.142 73.6245V131.139H338.634M360.235 131.139H338.634M338.634 131.139V148.836H315.472" stroke="#001858" stroke-width="2"/>
<path id="Vector 6" d="M314.171 73.1039H359.454" stroke="#001858" stroke-width="2" stroke-linecap="round"/>
<circle id="Ellipse 5" cx="329.005" cy="77.7884" r="1.06149" stroke="#001858"/>
<circle id="Ellipse 6" cx="329.005" cy="91.3214" r="1.06149" stroke="#001858"/>
<circle id="Ellipse 7" cx="329.005" cy="104.854" r="1.06149" stroke="#001858"/>
<circle id="Ellipse 8" cx="329.005" cy="119.949" r="1.06149" stroke="#001858"/>
<circle id="Ellipse 9" cx="338.374" cy="127.756" r="1.06149" stroke="#001858"/>
<circle id="Ellipse 10" cx="335.251" cy="134.523" r="1.06149" stroke="#001858"/>
<circle id="Ellipse 11" cx="323.28" cy="145.974" r="1.06149" stroke="#001858"/>
<circle id="Ellipse 12" cx="350.866" cy="127.756" r="1.06149" stroke="#001858"/>
<circle id="Ellipse 13" cx="335.251" cy="145.974" r="1.06149" stroke="#001858"/>
</g>
<g id="cat">
<g id="body">
<path id="Vector 1" d="M289.447 203.515C289.447 203.515 291.269 216.787 284.242 224.335C277.216 231.882 286.585 247.757 286.585 247.757" stroke="#001858" stroke-width="8" stroke-linecap="round"/>
<g id="Rectangle 9" filter="url(#filter0_i)">
<path d="M262.381 84.3082C262.381 77.1285 268.202 71.3082 275.381 71.3082H303.513C310.693 71.3082 316.513 77.1285 316.513 84.3082V192.076C316.513 199.256 310.693 205.076 303.513 205.076H275.381C268.202 205.076 262.381 199.256 262.381 192.076V84.3082Z" fill="#F7E0D4"/>
</g>
<g id="legs">
<g id="Rectangle 12" filter="url(#filter1_i)">
<path d="M300.066 193.921C300.414 190.308 303.625 187.661 307.238 188.009C310.851 188.357 313.498 191.568 313.15 195.181L308.366 244.866C308.018 248.479 304.807 251.126 301.194 250.778C297.581 250.431 294.934 247.22 295.282 243.607L300.066 193.921Z" fill="#F3D2C1"/>
</g>
<g id="Rectangle 13" filter="url(#filter2_i)">
<path d="M265.193 192.88C265.541 189.267 268.752 186.62 272.365 186.968C275.978 187.316 278.625 190.527 278.277 194.14L273.493 243.825C273.145 247.438 269.934 250.085 266.321 249.737C262.708 249.39 260.061 246.179 260.409 242.566L265.193 192.88Z" fill="#F3D2C1"/>
</g>
</g>
<path id="straps" d="M294.132 73.1299C292.657 89.8726 295.693 120.495 319.636 109.044M282.421 73.1299C283.375 86.8364 280.807 113.573 262.902 110.866M309.226 73.1299C312.696 74.4312 319.636 80.4169 319.636 93.9499" stroke="#001858" stroke-width="3" stroke-linecap="round"/>
<g id="arms">
<g id="Rectangle 10" filter="url(#filter3_i)">
<path d="M300.066 76.8092C300.414 73.1962 303.625 70.5492 307.238 70.8971C310.851 71.245 313.498 74.456 313.15 78.0691L308.366 127.754C308.018 131.367 304.807 134.014 301.194 133.666C297.581 133.319 294.934 130.108 295.282 126.495L300.066 76.8092Z" fill="#F3D2C1"/>
</g>
<g id="Rectangle 11" filter="url(#filter4_i)">
<path d="M265.193 76.8092C265.541 73.1962 268.752 70.5492 272.365 70.8971C275.978 71.245 278.625 74.456 278.277 78.0691L273.493 127.754C273.145 131.367 269.934 134.014 266.321 133.666C262.708 133.319 260.061 130.108 260.409 126.495L265.193 76.8092Z" fill="#F3D2C1"/>
</g>
</g>
</g>
<g id="face">
<g id="ears">
<g id="Polygon 1" filter="url(#filter5_i)">
<path d="M253.51 16.3011C253.6 12.4532 257.822 10.1456 261.11 12.1475L264.763 14.3723C268.05 16.3742 267.938 21.1841 264.56 23.0302L260.807 25.0817C257.43 26.9278 253.32 24.4254 253.41 20.5774L253.51 16.3011Z" fill="#F582AE"/>
</g>
<g id="Polygon 2" filter="url(#filter6_i)">
<path d="M297.682 8.59782C300.068 5.57769 304.829 6.27316 306.252 9.84968L307.832 13.8243C309.255 17.4008 306.272 21.176 302.464 20.6196L298.231 20.0013C294.422 19.4449 292.644 14.9743 295.031 11.9542L297.682 8.59782Z" fill="#F582AE"/>
</g>
</g>
<g id="Ellipse 1" filter="url(#filter7_i)">
<path d="M325.899 41.4054C327.96 61.8089 325.929 72.0387 289.896 76.514C253.863 80.9893 248.007 69.8851 245.946 49.4816C243.885 29.0782 259.015 16.4111 281.093 14.1809C303.172 11.9507 323.838 21.002 325.899 41.4054Z" fill="#F3D2C1"/>
</g>
<g id="eyes">
<g id="Ellipse 3" filter="url(#filter8_di)">
<circle cx="301.768" cy="36.8801" r="6.92756" transform="rotate(-5.76802 301.768 36.8801)" fill="#001858"/>
</g>
<g id="Ellipse 4" filter="url(#filter9_di)">
<circle cx="262.067" cy="40.8904" r="6.92756" transform="rotate(-5.76802 262.067 40.8904)" fill="#001858"/>
</g>
</g>
<ellipse id="Ellipse 36" cx="309.486" cy="49.9678" rx="7.54722" ry="4.16398" transform="rotate(-4.74806 309.486 49.9678)" fill="#F582AE" fill-opacity="0.61"/>
<ellipse id="Ellipse 37" cx="259.561" cy="56.8335" rx="7.54722" ry="4.16398" transform="rotate(-9.09121 259.561 56.8335)" fill="#F582AE" fill-opacity="0.58"/>
<g id="whiskers">
<path id="Vector 2" d="M316.48 46.2761C318.605 44.244 324.516 40.8449 331.167 43.5051" stroke="#001858" stroke-width="2" stroke-linecap="round"/>
<path id="Vector 3" d="M317.034 49.7467C319.159 47.7146 325.07 44.3155 331.721 46.9757" stroke="#001858" stroke-width="2" stroke-linecap="round"/>
<path id="Vector 4" d="M254.518 54.753C251.65 54.106 244.832 54.2386 240.503 59.945" stroke="#001858" stroke-width="2" stroke-linecap="round"/>
<path id="Vector 5" d="M255.831 58.013C252.963 57.366 246.146 57.4986 241.816 63.205" stroke="#001858" stroke-width="2" stroke-linecap="round"/>
</g>
<path id="mouth" d="M276.497 52.2762C276.593 53.0088 277.384 54.3394 279.772 53.8012C282.161 53.2629 281.881 52.1259 281.442 51.6247C281.527 52.2658 282.355 53.461 284.992 53.1135C287.63 52.7661 287.754 51.4454 287.486 50.8285" stroke="#001858" stroke-width="2" stroke-linecap="round" stroke-linejoin="round"/>
<g id="Intersect" filter="url(#filter10_d)">
<path fill-rule="evenodd" clip-rule="evenodd" d="M290.749 19.9821C293.479 19.9821 295.693 17.7682 295.693 15.0373C295.693 14.9 295.688 14.7639 295.677 14.6294C292.523 14.1769 289.242 13.9911 285.898 14.0717C285.836 14.384 285.804 14.7069 285.804 15.0373C285.804 17.7682 288.018 19.9821 290.749 19.9821Z" fill="#FEF6E4"/>
</g>
<g id="Intersect_2" filter="url(#filter11_d)">
<path fill-rule="evenodd" clip-rule="evenodd" d="M281.895 19.4616C284.626 19.4616 286.84 17.2477 286.84 14.5168C286.84 14.3611 286.832 14.2071 286.818 14.0551C284.534 14.0384 282.214 14.1481 279.878 14.384C278.89 14.4839 277.915 14.6047 276.955 14.7462C277.075 17.3706 279.241 19.4616 281.895 19.4616Z" fill="#FEF6E4"/>
</g>
<g id="Intersect_3" filter="url(#filter12_d)">
<path fill-rule="evenodd" clip-rule="evenodd" d="M273.501 20.8972C276.232 20.8972 278.446 18.6834 278.446 15.9525C278.446 15.4741 278.378 15.0115 278.251 14.5739C274.845 15.058 271.624 15.801 268.627 16.7923C269.026 19.1232 271.056 20.8972 273.501 20.8972Z" fill="#FEF6E4"/>
</g>
</g>
</g>
<g id="explosions">
<circle id="Ellipse 15" cx="324.684" cy="260.684" r="1.56149" fill="#EB5757"/>
<circle id="Ellipse 17" cx="330.93" cy="260.684" r="1.56149" fill="#56CCF2"/>
<circle id="Ellipse 19" cx="337.176" cy="260.684" r="1.56149" fill="#BB6BD9"/>
<circle id="Ellipse 21" cx="343.422" cy="260.684" r="1.56149" fill="#EB5757"/>
<circle id="Ellipse 23" cx="349.668" cy="260.684" r="1.56149" fill="#56CCF2"/>
<circle id="Ellipse 25" cx="352.791" cy="257.561" r="1.56149" transform="rotate(180 352.791 257.561)" fill="#6FCF97"/>
<circle id="Ellipse 27" cx="346.545" cy="257.561" r="1.56149" transform="rotate(180 346.545 257.561)" fill="#F2C94C"/>
<circle id="Ellipse 29" cx="340.299" cy="257.561" r="1.56149" transform="rotate(180 340.299 257.561)" fill="#F2994A"/>
<circle id="Ellipse 31" cx="334.053" cy="257.561" r="1.56149" transform="rotate(180 334.053 257.561)" fill="#6FCF97"/>
<circle id="Ellipse 33" cx="327.807" cy="257.561" r="1.56149" transform="rotate(180 327.807 257.561)" fill="#F2C94C"/>
<circle id="Ellipse 35" cx="321.561" cy="257.561" r="1.56149" transform="rotate(180 321.561 257.561)" fill="#F2994A"/>
</g>
</g>
<path id="Hi, I&#39;m Marc Obel" d="M66.877 74H56.6523V56.1875H41.5059V74H31.2227V31.3438H41.5059V48.2773H56.6523V31.3438H66.877V74ZM83.3711 74H73.4688V42.3008H83.3711V74ZM72.8828 34.127C72.8828 32.7207 73.3906 31.5684 74.4062 30.6699C75.4219 29.7715 76.7402 29.3223 78.3613 29.3223C79.9824 29.3223 81.3008 29.7715 82.3164 30.6699C83.332 31.5684 83.8398 32.7207 83.8398 34.127C83.8398 35.5332 83.332 36.6855 82.3164 37.584C81.3008 38.4824 79.9824 38.9316 78.3613 38.9316C76.7402 38.9316 75.4219 38.4824 74.4062 37.584C73.3906 36.6855 72.8828 35.5332 72.8828 34.127ZM92.9512 85.4844L87.9707 83.1406L88.9668 81.1484C90.334 78.6094 91.0469 76.1875 91.1055 73.8828V66.5586H99.0156L98.9863 72.916C98.9668 75.1621 98.3906 77.4473 97.2578 79.7715C96.125 82.0957 94.6895 84 92.9512 85.4844ZM122.795 74H115.959V45.5625H122.795V74ZM130.939 47.1641L130.295 55.2305H126.252V44H130.939V47.1641ZM139.26 52.8672L139.475 55.3477C140.972 53.4336 142.984 52.4766 145.51 52.4766C148.179 52.4766 149.982 53.5378 150.92 55.6602C152.352 53.5378 154.423 52.4766 157.131 52.4766C161.415 52.4766 163.615 55.0677 163.732 60.25V74H157.131V60.6602C157.131 59.5794 156.949 58.7917 156.584 58.2969C156.219 57.8021 155.555 57.5547 154.592 57.5547C153.29 57.5547 152.32 58.1341 151.682 59.293L151.701 59.5664V74H145.1V60.6992C145.1 59.5924 144.924 58.7917 144.572 58.2969C144.221 57.8021 143.55 57.5547 142.561 57.5547C141.298 57.5547 140.334 58.1341 139.67 59.293V74H133.088V52.8672H139.26ZM39.1523 92.5625L45.5 112.348L51.8281 92.5625H60.8516V121H53.9766V114.359L54.6406 100.766L47.7656 121H43.2344L36.3398 100.746L37.0039 114.359V121H30.1484V92.5625H39.1523ZM76.8281 121C76.5938 120.57 76.3854 119.939 76.2031 119.105C74.9922 120.629 73.2995 121.391 71.125 121.391C69.1328 121.391 67.4401 120.792 66.0469 119.594C64.6536 118.383 63.957 116.866 63.957 115.043C63.957 112.751 64.8034 111.02 66.4961 109.848C68.1888 108.676 70.6497 108.09 73.8789 108.09H75.9102V106.977C75.9102 105.036 75.0703 104.066 73.3906 104.066C71.8281 104.066 71.0469 104.835 71.0469 106.371H64.4648C64.4648 104.327 65.3307 102.667 67.0625 101.391C68.8073 100.115 71.0273 99.4766 73.7227 99.4766C76.418 99.4766 78.5469 100.134 80.1094 101.449C81.6719 102.764 82.4727 104.568 82.5117 106.859V116.215C82.5378 118.155 82.8372 119.639 83.4102 120.668V121H76.8281ZM72.707 116.703C73.5273 116.703 74.2044 116.527 74.7383 116.176C75.2852 115.824 75.6758 115.427 75.9102 114.984V111.605H73.9961C71.7044 111.605 70.5586 112.634 70.5586 114.691C70.5586 115.29 70.7604 115.779 71.1641 116.156C71.5677 116.521 72.082 116.703 72.707 116.703ZM98.957 105.824L96.7891 105.668C94.7188 105.668 93.3906 106.319 92.8047 107.621V121H86.2227V99.8672H92.3945L92.6094 102.582C93.7161 100.512 95.2591 99.4766 97.2383 99.4766C97.9414 99.4766 98.5534 99.5547 99.0742 99.7109L98.957 105.824ZM109.875 116.312C110.799 116.312 111.516 116.065 112.023 115.57C112.531 115.062 112.779 114.359 112.766 113.461H118.938C118.938 115.779 118.104 117.68 116.438 119.164C114.784 120.648 112.648 121.391 110.031 121.391C106.958 121.391 104.536 120.427 102.766 118.5C100.995 116.573 100.109 113.904 100.109 110.492V110.219C100.109 108.083 100.5 106.202 101.281 104.574C102.076 102.934 103.215 101.677 104.699 100.805C106.184 99.9193 107.941 99.4766 109.973 99.4766C112.72 99.4766 114.901 100.238 116.516 101.762C118.13 103.285 118.938 105.349 118.938 107.953H112.766C112.766 106.859 112.499 106.02 111.965 105.434C111.431 104.848 110.715 104.555 109.816 104.555C108.111 104.555 107.115 105.642 106.828 107.816C106.737 108.507 106.691 109.457 106.691 110.668C106.691 112.79 106.945 114.262 107.453 115.082C107.961 115.902 108.768 116.312 109.875 116.312ZM156.066 107.367C156.066 110.141 155.552 112.595 154.523 114.73C153.495 116.866 152.03 118.513 150.129 119.672C148.241 120.818 146.086 121.391 143.664 121.391C141.242 121.391 139.094 120.837 137.219 119.73C135.344 118.611 133.879 117.016 132.824 114.945C131.783 112.875 131.236 110.499 131.184 107.816V106.215C131.184 103.428 131.691 100.974 132.707 98.8516C133.736 96.7161 135.201 95.069 137.102 93.9102C139.016 92.7513 141.19 92.1719 143.625 92.1719C146.034 92.1719 148.182 92.7448 150.07 93.8906C151.958 95.0365 153.423 96.6706 154.465 98.793C155.52 100.902 156.053 103.324 156.066 106.059V107.367ZM149.094 106.176C149.094 103.35 148.618 101.208 147.668 99.75C146.73 98.2786 145.383 97.543 143.625 97.543C140.188 97.543 138.371 100.121 138.176 105.277L138.156 107.367C138.156 110.154 138.618 112.296 139.543 113.793C140.467 115.29 141.841 116.039 143.664 116.039C145.396 116.039 146.73 115.303 147.668 113.832C148.605 112.361 149.081 110.245 149.094 107.484V106.176ZM178.918 110.609C178.918 114.073 178.202 116.736 176.77 118.598C175.337 120.46 173.319 121.391 170.715 121.391C168.566 121.391 166.835 120.538 165.52 118.832L165.246 121H159.348V91H165.93V101.566C167.154 100.173 168.736 99.4766 170.676 99.4766C173.306 99.4766 175.337 100.421 176.77 102.309C178.202 104.197 178.918 106.853 178.918 110.277V110.609ZM172.316 110.199C172.316 108.168 172.043 106.723 171.496 105.863C170.962 104.991 170.135 104.555 169.016 104.555C167.531 104.555 166.503 105.121 165.93 106.254V114.652C166.49 115.772 167.531 116.332 169.055 116.332C170.604 116.332 171.587 115.577 172.004 114.066C172.212 113.324 172.316 112.035 172.316 110.199ZM192.062 121.391C188.82 121.391 186.197 120.427 184.191 118.5C182.186 116.56 181.184 114.04 181.184 110.941V110.395C181.184 108.233 181.581 106.326 182.375 104.672C183.182 103.018 184.354 101.742 185.891 100.844C187.427 99.9323 189.25 99.4766 191.359 99.4766C194.328 99.4766 196.672 100.401 198.391 102.25C200.109 104.086 200.969 106.651 200.969 109.945V112.504H187.883C188.117 113.689 188.632 114.62 189.426 115.297C190.22 115.974 191.249 116.312 192.512 116.312C194.595 116.312 196.223 115.583 197.395 114.125L200.402 117.68C199.582 118.812 198.417 119.717 196.906 120.395C195.409 121.059 193.794 121.391 192.062 121.391ZM191.32 104.555C189.393 104.555 188.247 105.831 187.883 108.383H194.523V107.875C194.549 106.82 194.283 106.007 193.723 105.434C193.163 104.848 192.362 104.555 191.32 104.555ZM210.578 121H203.977V91H210.578V121Z" fill="#001858"/>
<path id="Frontend developer" d="M37.2871 150.721H31.5059L30.4121 157H28.5762L31.0469 142.781H39.6016L39.3281 144.324H32.6094L31.7695 149.188H37.5605L37.2871 150.721ZM45.4414 148.045L44.6113 147.957C43.4785 147.957 42.5866 148.468 41.9355 149.49L40.6367 157H38.8691L40.7051 146.434L42.4141 146.424L42.1504 147.654C42.8991 146.671 43.7812 146.193 44.7969 146.219C45.0117 146.219 45.2917 146.268 45.6367 146.365L45.4414 148.045ZM51.2031 146.238C52.0885 146.251 52.847 146.492 53.4785 146.961C54.11 147.43 54.5755 148.077 54.875 148.904C55.181 149.725 55.2852 150.623 55.1875 151.6L55.168 151.814C55.0443 152.843 54.7383 153.774 54.25 154.607C53.7617 155.434 53.1302 156.079 52.3555 156.541C51.5807 157.003 50.7311 157.221 49.8066 157.195C48.9277 157.182 48.1693 156.941 47.5312 156.473C46.8997 156.004 46.4375 155.366 46.1445 154.559C45.8516 153.751 45.7474 152.863 45.832 151.893C45.9297 150.799 46.2259 149.816 46.7207 148.943C47.2155 148.071 47.8503 147.397 48.625 146.922C49.4062 146.44 50.2656 146.212 51.2031 146.238ZM47.6094 151.902C47.5638 152.312 47.5638 152.739 47.6094 153.182C47.6745 153.95 47.9023 154.562 48.293 155.018C48.6901 155.473 49.2174 155.711 49.875 155.73C50.4609 155.75 51.0013 155.607 51.4961 155.301C51.9909 154.988 52.4076 154.52 52.7461 153.895C53.0846 153.27 53.3027 152.576 53.4004 151.814C53.4525 151.215 53.4622 150.711 53.4297 150.301C53.3516 149.513 53.1139 148.891 52.7168 148.436C52.3197 147.98 51.7923 147.739 51.1348 147.713C50.2233 147.693 49.4486 148.051 48.8105 148.787C48.1725 149.523 47.7786 150.486 47.6289 151.678L47.6094 151.902ZM60.0117 146.424L59.7578 147.762C60.7083 146.72 61.7891 146.212 63 146.238C63.9961 146.264 64.7318 146.609 65.207 147.273C65.6823 147.938 65.8581 148.872 65.7344 150.076L64.582 157H62.8145L63.9766 150.047C64.0156 149.728 64.0189 149.432 63.9863 149.158C63.8757 148.247 63.3385 147.781 62.375 147.762C61.3138 147.742 60.3828 148.309 59.582 149.461L58.2734 157H56.5059L58.3418 146.434L60.0117 146.424ZM71.9746 143.875L71.5254 146.434H73.4492L73.2051 147.83H71.291L70.1875 154.402C70.168 154.572 70.1647 154.728 70.1777 154.871C70.2233 155.379 70.5 155.633 71.0078 155.633C71.2227 155.633 71.5091 155.6 71.8672 155.535L71.7305 157.01C71.3073 157.127 70.8776 157.186 70.4414 157.186C69.7383 157.173 69.2109 156.915 68.8594 156.414C68.5078 155.906 68.3711 155.226 68.4492 154.373L69.5234 147.83H67.6582L67.9023 146.434H69.7676L70.2168 143.875H71.9746ZM78.3223 157.195C77.0072 157.169 75.9785 156.684 75.2363 155.74C74.4941 154.796 74.1816 153.589 74.2988 152.117L74.3477 151.697C74.4583 150.649 74.7676 149.692 75.2754 148.826C75.7897 147.96 76.4147 147.309 77.1504 146.873C77.8861 146.43 78.6803 146.219 79.5332 146.238C80.6204 146.264 81.4733 146.626 82.0918 147.322C82.7103 148.019 83.0488 148.963 83.1074 150.154C83.127 150.577 83.1139 151.001 83.0684 151.424L82.9609 152.234H76.0566C75.9395 153.191 76.0957 154.005 76.5254 154.676C76.9616 155.346 77.6094 155.695 78.4688 155.721C79.5104 155.747 80.474 155.278 81.3594 154.314L82.375 155.174C81.9323 155.812 81.3594 156.313 80.6562 156.678C79.9596 157.036 79.1816 157.208 78.3223 157.195ZM79.4453 147.713C78.7161 147.693 78.0781 147.941 77.5312 148.455C76.9909 148.969 76.5612 149.734 76.2422 150.75L81.3789 150.76L81.418 150.604C81.5221 149.783 81.3887 149.103 81.0176 148.562C80.653 148.016 80.1289 147.732 79.4453 147.713ZM87.6289 146.424L87.375 147.762C88.3255 146.72 89.4062 146.212 90.6172 146.238C91.6133 146.264 92.349 146.609 92.8242 147.273C93.2995 147.938 93.4753 148.872 93.3516 150.076L92.1992 157H90.4316L91.5938 150.047C91.6328 149.728 91.6361 149.432 91.6035 149.158C91.4928 148.247 90.9557 147.781 89.9922 147.762C88.931 147.742 88 148.309 87.1992 149.461L85.8906 157H84.123L85.959 146.434L87.6289 146.424ZM95.4316 151.697C95.5618 150.623 95.8581 149.653 96.3203 148.787C96.7826 147.921 97.3522 147.273 98.0293 146.844C98.7064 146.414 99.4518 146.209 100.266 146.229C101.444 146.255 102.349 146.684 102.98 147.518L103.996 142H105.764L103.166 157H101.555L101.74 155.867C100.907 156.779 99.8783 157.221 98.6543 157.195C97.6777 157.169 96.8997 156.788 96.3203 156.053C95.7409 155.311 95.4284 154.318 95.3828 153.074C95.3633 152.69 95.3796 152.231 95.4316 151.697ZM97.1309 152.713C97.1113 153.644 97.2773 154.367 97.6289 154.881C97.9805 155.395 98.4948 155.659 99.1719 155.672C100.194 155.717 101.102 155.203 101.896 154.129L102.736 149.246C102.346 148.283 101.636 147.788 100.607 147.762C99.9108 147.742 99.2956 147.954 98.7617 148.396C98.2344 148.833 97.8307 149.448 97.5508 150.242C97.2773 151.03 97.1374 151.854 97.1309 152.713ZM111.369 151.697C111.499 150.623 111.796 149.653 112.258 148.787C112.72 147.921 113.29 147.273 113.967 146.844C114.644 146.414 115.389 146.209 116.203 146.229C117.382 146.255 118.286 146.684 118.918 147.518L119.934 142H121.701L119.104 157H117.492L117.678 155.867C116.844 156.779 115.816 157.221 114.592 157.195C113.615 157.169 112.837 156.788 112.258 156.053C111.678 155.311 111.366 154.318 111.32 153.074C111.301 152.69 111.317 152.231 111.369 151.697ZM113.068 152.713C113.049 153.644 113.215 154.367 113.566 154.881C113.918 155.395 114.432 155.659 115.109 155.672C116.132 155.717 117.04 155.203 117.834 154.129L118.674 149.246C118.283 148.283 117.574 147.788 116.545 147.762C115.848 147.742 115.233 147.954 114.699 148.396C114.172 148.833 113.768 149.448 113.488 150.242C113.215 151.03 113.075 151.854 113.068 152.713ZM126.467 157.195C125.152 157.169 124.123 156.684 123.381 155.74C122.639 154.796 122.326 153.589 122.443 152.117L122.492 151.697C122.603 150.649 122.912 149.692 123.42 148.826C123.934 147.96 124.559 147.309 125.295 146.873C126.031 146.43 126.825 146.219 127.678 146.238C128.765 146.264 129.618 146.626 130.236 147.322C130.855 148.019 131.193 148.963 131.252 150.154C131.271 150.577 131.258 151.001 131.213 151.424L131.105 152.234H124.201C124.084 153.191 124.24 154.005 124.67 154.676C125.106 155.346 125.754 155.695 126.613 155.721C127.655 155.747 128.618 155.278 129.504 154.314L130.52 155.174C130.077 155.812 129.504 156.313 128.801 156.678C128.104 157.036 127.326 157.208 126.467 157.195ZM127.59 147.713C126.861 147.693 126.223 147.941 125.676 148.455C125.135 148.969 124.706 149.734 124.387 150.75L129.523 150.76L129.562 150.604C129.667 149.783 129.533 149.103 129.162 148.562C128.798 148.016 128.273 147.732 127.59 147.713ZM135.969 154.529L139.777 146.434H141.643L136.32 157H134.973L132.902 146.434H134.641L135.969 154.529ZM146.057 157.195C144.742 157.169 143.713 156.684 142.971 155.74C142.229 154.796 141.916 153.589 142.033 152.117L142.082 151.697C142.193 150.649 142.502 149.692 143.01 148.826C143.524 147.96 144.149 147.309 144.885 146.873C145.62 146.43 146.415 146.219 147.268 146.238C148.355 146.264 149.208 146.626 149.826 147.322C150.445 148.019 150.783 148.963 150.842 150.154C150.861 150.577 150.848 151.001 150.803 151.424L150.695 152.234H143.791C143.674 153.191 143.83 154.005 144.26 154.676C144.696 155.346 145.344 155.695 146.203 155.721C147.245 155.747 148.208 155.278 149.094 154.314L150.109 155.174C149.667 155.812 149.094 156.313 148.391 156.678C147.694 157.036 146.916 157.208 146.057 157.195ZM147.18 147.713C146.451 147.693 145.812 147.941 145.266 148.455C144.725 148.969 144.296 149.734 143.977 150.75L149.113 150.76L149.152 150.604C149.257 149.783 149.123 149.103 148.752 148.562C148.387 148.016 147.863 147.732 147.18 147.713ZM153.771 157H152.014L154.611 142H156.379L153.771 157ZM162.531 146.238C163.417 146.251 164.175 146.492 164.807 146.961C165.438 147.43 165.904 148.077 166.203 148.904C166.509 149.725 166.613 150.623 166.516 151.6L166.496 151.814C166.372 152.843 166.066 153.774 165.578 154.607C165.09 155.434 164.458 156.079 163.684 156.541C162.909 157.003 162.059 157.221 161.135 157.195C160.256 157.182 159.497 156.941 158.859 156.473C158.228 156.004 157.766 155.366 157.473 154.559C157.18 153.751 157.076 152.863 157.16 151.893C157.258 150.799 157.554 149.816 158.049 148.943C158.544 148.071 159.178 147.397 159.953 146.922C160.734 146.44 161.594 146.212 162.531 146.238ZM158.938 151.902C158.892 152.312 158.892 152.739 158.938 153.182C159.003 153.95 159.23 154.562 159.621 155.018C160.018 155.473 160.546 155.711 161.203 155.73C161.789 155.75 162.329 155.607 162.824 155.301C163.319 154.988 163.736 154.52 164.074 153.895C164.413 153.27 164.631 152.576 164.729 151.814C164.781 151.215 164.79 150.711 164.758 150.301C164.68 149.513 164.442 148.891 164.045 148.436C163.648 147.98 163.12 147.739 162.463 147.713C161.551 147.693 160.777 148.051 160.139 148.787C159.501 149.523 159.107 150.486 158.957 151.678L158.938 151.902ZM177.404 151.766C177.274 152.84 176.984 153.807 176.535 154.666C176.086 155.525 175.529 156.17 174.865 156.6C174.201 157.023 173.465 157.225 172.658 157.205C171.434 157.179 170.497 156.766 169.846 155.965L168.898 161.062H167.131L169.67 146.434L171.271 146.424L171.076 147.605C171.949 146.668 172.993 146.212 174.211 146.238C175.227 146.264 176.018 146.639 176.584 147.361C177.15 148.084 177.45 149.08 177.482 150.35C177.489 150.766 177.473 151.17 177.434 151.561L177.404 151.766ZM175.666 151.561L175.715 150.74C175.715 149.79 175.533 149.064 175.168 148.562C174.81 148.055 174.289 147.788 173.605 147.762C172.583 147.736 171.701 148.221 170.959 149.217L170.07 154.285C170.467 155.223 171.18 155.704 172.209 155.73C173.088 155.75 173.833 155.408 174.445 154.705C175.064 153.995 175.471 152.947 175.666 151.561ZM183.4 157.195C182.085 157.169 181.057 156.684 180.314 155.74C179.572 154.796 179.26 153.589 179.377 152.117L179.426 151.697C179.536 150.649 179.846 149.692 180.354 148.826C180.868 147.96 181.493 147.309 182.229 146.873C182.964 146.43 183.758 146.219 184.611 146.238C185.699 146.264 186.551 146.626 187.17 147.322C187.788 148.019 188.127 148.963 188.186 150.154C188.205 150.577 188.192 151.001 188.146 151.424L188.039 152.234H181.135C181.018 153.191 181.174 154.005 181.604 154.676C182.04 155.346 182.688 155.695 183.547 155.721C184.589 155.747 185.552 155.278 186.438 154.314L187.453 155.174C187.01 155.812 186.438 156.313 185.734 156.678C185.038 157.036 184.26 157.208 183.4 157.195ZM184.523 147.713C183.794 147.693 183.156 147.941 182.609 148.455C182.069 148.969 181.639 149.734 181.32 150.75L186.457 150.76L186.496 150.604C186.6 149.783 186.467 149.103 186.096 148.562C185.731 148.016 185.207 147.732 184.523 147.713ZM195.773 148.045L194.943 147.957C193.811 147.957 192.919 148.468 192.268 149.49L190.969 157H189.201L191.037 146.434L192.746 146.424L192.482 147.654C193.231 146.671 194.113 146.193 195.129 146.219C195.344 146.219 195.624 146.268 195.969 146.365L195.773 148.045Z" fill="#001858"/>
<path id="Rectangle 4_2" d="M347 407.518C347 407.518 293.5 365.366 178.5 344.435C63.5 323.504 0 236 0 236V527H375L347 407.518Z" fill="#8BD3DD"/>
<path id="Rectangle 3_2" d="M375 420.367C375 420.367 350 378.959 206.5 378.959C63 378.959 0 306 0 306V548H375V420.367Z" fill="#F3D2C1"/>
</g>
<defs>
<filter id="filter0_i" x="262.381" y="71.3082" width="54.1318" height="133.768" filterUnits="userSpaceOnUse" color-interpolation-filters="sRGB">
<feFlood flood-opacity="0" result="BackgroundImageFix"/>
<feBlend mode="normal" in="SourceGraphic" in2="BackgroundImageFix" result="shape"/>
<feColorMatrix in="SourceAlpha" type="matrix" values="0 0 0 0 0 0 0 0 0 0 0 0 0 0 0 0 0 0 127 0" result="hardAlpha"/>
<feOffset dx="-5" dy="-4"/>
<feComposite in2="hardAlpha" operator="arithmetic" k2="-1" k3="1"/>
<feColorMatrix type="matrix" values="0 0 0 0 0 0 0 0 0 0 0 0 0 0 0 0 0 0 0.15 0"/>
<feBlend mode="normal" in2="shape" result="effect1_innerShadow"/>
</filter>
<filter id="filter1_i" x="294.652" y="187.379" width="19.128" height="64.0292" filterUnits="userSpaceOnUse" color-interpolation-filters="sRGB">
<feFlood flood-opacity="0" result="BackgroundImageFix"/>
<feBlend mode="normal" in="SourceGraphic" in2="BackgroundImageFix" result="shape"/>
<feColorMatrix in="SourceAlpha" type="matrix" values="0 0 0 0 0 0 0 0 0 0 0 0 0 0 0 0 0 0 127 0" result="hardAlpha"/>
<feOffset dx="-5" dy="-4"/>
<feComposite in2="hardAlpha" operator="arithmetic" k2="-1" k3="1"/>
<feColorMatrix type="matrix" values="0 0 0 0 0 0 0 0 0 0 0 0 0 0 0 0 0 0 0.15 0"/>
<feBlend mode="normal" in2="shape" result="effect1_innerShadow"/>
</filter>
<filter id="filter2_i" x="259.779" y="186.338" width="19.128" height="64.0292" filterUnits="userSpaceOnUse" color-interpolation-filters="sRGB">
<feFlood flood-opacity="0" result="BackgroundImageFix"/>
<feBlend mode="normal" in="SourceGraphic" in2="BackgroundImageFix" result="shape"/>
<feColorMatrix in="SourceAlpha" type="matrix" values="0 0 0 0 0 0 0 0 0 0 0 0 0 0 0 0 0 0 127 0" result="hardAlpha"/>
<feOffset dx="-5" dy="-4"/>
<feComposite in2="hardAlpha" operator="arithmetic" k2="-1" k3="1"/>
<feColorMatrix type="matrix" values="0 0 0 0 0 0 0 0 0 0 0 0 0 0 0 0 0 0 0.15 0"/>
<feBlend mode="normal" in2="shape" result="effect1_innerShadow"/>
</filter>
<filter id="filter3_i" x="294.652" y="70.2672" width="19.128" height="64.0292" filterUnits="userSpaceOnUse" color-interpolation-filters="sRGB">
<feFlood flood-opacity="0" result="BackgroundImageFix"/>
<feBlend mode="normal" in="SourceGraphic" in2="BackgroundImageFix" result="shape"/>
<feColorMatrix in="SourceAlpha" type="matrix" values="0 0 0 0 0 0 0 0 0 0 0 0 0 0 0 0 0 0 127 0" result="hardAlpha"/>
<feOffset dx="-5" dy="-4"/>
<feComposite in2="hardAlpha" operator="arithmetic" k2="-1" k3="1"/>
<feColorMatrix type="matrix" values="0 0 0 0 0 0 0 0 0 0 0 0 0 0 0 0 0 0 0.15 0"/>
<feBlend mode="normal" in2="shape" result="effect1_innerShadow"/>
</filter>
<filter id="filter4_i" x="259.779" y="70.2672" width="19.128" height="64.0292" filterUnits="userSpaceOnUse" color-interpolation-filters="sRGB">
<feFlood flood-opacity="0" result="BackgroundImageFix"/>
<feBlend mode="normal" in="SourceGraphic" in2="BackgroundImageFix" result="shape"/>
<feColorMatrix in="SourceAlpha" type="matrix" values="0 0 0 0 0 0 0 0 0 0 0 0 0 0 0 0 0 0 127 0" result="hardAlpha"/>
<feOffset dx="-5" dy="-4"/>
<feComposite in2="hardAlpha" operator="arithmetic" k2="-1" k3="1"/>
<feColorMatrix type="matrix" values="0 0 0 0 0 0 0 0 0 0 0 0 0 0 0 0 0 0 0.15 0"/>
<feBlend mode="normal" in2="shape" result="effect1_innerShadow"/>
</filter>
<filter id="filter5_i" x="249.84" y="8.60321" width="19.1141" height="18.8802" filterUnits="userSpaceOnUse" color-interpolation-filters="sRGB">
<feFlood flood-opacity="0" result="BackgroundImageFix"/>
<feBlend mode="normal" in="SourceGraphic" in2="BackgroundImageFix" result="shape"/>
<feColorMatrix in="SourceAlpha" type="matrix" values="0 0 0 0 0 0 0 0 0 0 0 0 0 0 0 0 0 0 127 0" result="hardAlpha"/>
<feOffset dx="-4" dy="2"/>
<feComposite in2="hardAlpha" operator="arithmetic" k2="-1" k3="1"/>
<feColorMatrix type="matrix" values="0 0 0 0 0 0 0 0 0 0 0 0 0 0 0 0 0 0 0.2 0"/>
<feBlend mode="normal" in2="shape" result="effect1_innerShadow"/>
</filter>
<filter id="filter6_i" x="293.276" y="5.71701" width="16.1233" height="15.6265" filterUnits="userSpaceOnUse" color-interpolation-filters="sRGB">
<feFlood flood-opacity="0" result="BackgroundImageFix"/>
<feBlend mode="normal" in="SourceGraphic" in2="BackgroundImageFix" result="shape"/>
<feColorMatrix in="SourceAlpha" type="matrix" values="0 0 0 0 0 0 0 0 0 0 0 0 0 0 0 0 0 0 127 0" result="hardAlpha"/>
<feOffset dx="-4" dy="2"/>
<feComposite in2="hardAlpha" operator="arithmetic" k2="-1" k3="1"/>
<feColorMatrix type="matrix" values="0 0 0 0 0 0 0 0 0 0 0 0 0 0 0 0 0 0 0.2 0"/>
<feBlend mode="normal" in2="shape" result="effect1_innerShadow"/>
</filter>
<filter id="filter7_i" x="242.771" y="9.97568" width="86.2788" height="70.7015" filterUnits="userSpaceOnUse" color-interpolation-filters="sRGB">
<feFlood flood-opacity="0" result="BackgroundImageFix"/>
<feBlend mode="normal" in="SourceGraphic" in2="BackgroundImageFix" result="shape"/>
<feColorMatrix in="SourceAlpha" type="matrix" values="0 0 0 0 0 0 0 0 0 0 0 0 0 0 0 0 0 0 127 0" result="hardAlpha"/>
<feOffset dx="-4" dy="-4"/>
<feComposite in2="hardAlpha" operator="arithmetic" k2="-1" k3="1"/>
<feColorMatrix type="matrix" values="0 0 0 0 0 0 0 0 0 0 0 0 0 0 0 0 0 0 0.15 0"/>
<feBlend mode="normal" in2="shape" result="effect1_innerShadow"/>
</filter>
<filter id="filter8_di" x="289.179" y="28.2914" width="25.1774" height="25.1774" filterUnits="userSpaceOnUse" color-interpolation-filters="sRGB">
<feFlood flood-opacity="0" result="BackgroundImageFix"/>
<feColorMatrix in="SourceAlpha" type="matrix" values="0 0 0 0 0 0 0 0 0 0 0 0 0 0 0 0 0 0 127 0"/>
<feMorphology radius="1" operator="dilate" in="SourceAlpha" result="effect1_dropShadow"/>
<feOffset dy="4"/>
<feGaussianBlur stdDeviation="2"/>
<feColorMatrix type="matrix" values="0 0 0 0 0 0 0 0 0 0 0 0 0 0 0 0 0 0 0.25 0"/>
<feBlend mode="normal" in2="BackgroundImageFix" result="effect1_dropShadow"/>
<feBlend mode="normal" in="SourceGraphic" in2="effect1_dropShadow" result="shape"/>
<feColorMatrix in="SourceAlpha" type="matrix" values="0 0 0 0 0 0 0 0 0 0 0 0 0 0 0 0 0 0 127 0" result="hardAlpha"/>
<feOffset dx="-1" dy="-1"/>
<feComposite in2="hardAlpha" operator="arithmetic" k2="-1" k3="1"/>
<feColorMatrix type="matrix" values="0 0 0 0 0 0 0 0 0 0 0 0 0 0 0 0 0 0 0.25 0"/>
<feBlend mode="normal" in2="shape" result="effect2_innerShadow"/>
</filter>
<filter id="filter9_di" x="249.479" y="32.3016" width="25.1774" height="25.1774" filterUnits="userSpaceOnUse" color-interpolation-filters="sRGB">
<feFlood flood-opacity="0" result="BackgroundImageFix"/>
<feColorMatrix in="SourceAlpha" type="matrix" values="0 0 0 0 0 0 0 0 0 0 0 0 0 0 0 0 0 0 127 0"/>
<feMorphology radius="1" operator="dilate" in="SourceAlpha" result="effect1_dropShadow"/>
<feOffset dy="4"/>
<feGaussianBlur stdDeviation="2"/>
<feColorMatrix type="matrix" values="0 0 0 0 0 0 0 0 0 0 0 0 0 0 0 0 0 0 0.25 0"/>
<feBlend mode="normal" in2="BackgroundImageFix" result="effect1_dropShadow"/>
<feBlend mode="normal" in="SourceGraphic" in2="effect1_dropShadow" result="shape"/>
<feColorMatrix in="SourceAlpha" type="matrix" values="0 0 0 0 0 0 0 0 0 0 0 0 0 0 0 0 0 0 127 0" result="hardAlpha"/>
<feOffset dx="-1" dy="-1"/>
<feComposite in2="hardAlpha" operator="arithmetic" k2="-1" k3="1"/>
<feColorMatrix type="matrix" values="0 0 0 0 0 0 0 0 0 0 0 0 0 0 0 0 0 0 0.25 0"/>
<feBlend mode="normal" in2="shape" result="effect2_innerShadow"/>
</filter>
<filter id="filter10_d" x="285.804" y="14.0534" width="9.88946" height="7.92862" filterUnits="userSpaceOnUse" color-interpolation-filters="sRGB">
<feFlood flood-opacity="0" result="BackgroundImageFix"/>
<feColorMatrix in="SourceAlpha" type="matrix" values="0 0 0 0 0 0 0 0 0 0 0 0 0 0 0 0 0 0 127 0"/>
<feOffset dy="2"/>
<feColorMatrix type="matrix" values="0 0 0 0 0.996078 0 0 0 0 0.964706 0 0 0 0 0.894118 0 0 0 0.52 0"/>
<feBlend mode="normal" in2="BackgroundImageFix" result="effect1_dropShadow"/>
<feBlend mode="normal" in="SourceGraphic" in2="effect1_dropShadow" result="shape"/>
</filter>
<filter id="filter11_d" x="276.955" y="14.0534" width="9.88424" height="7.40812" filterUnits="userSpaceOnUse" color-interpolation-filters="sRGB">
<feFlood flood-opacity="0" result="BackgroundImageFix"/>
<feColorMatrix in="SourceAlpha" type="matrix" values="0 0 0 0 0 0 0 0 0 0 0 0 0 0 0 0 0 0 127 0"/>
<feOffset dy="2"/>
<feColorMatrix type="matrix" values="0 0 0 0 0.996078 0 0 0 0 0.964706 0 0 0 0 0.894118 0 0 0 0.52 0"/>
<feBlend mode="normal" in2="BackgroundImageFix" result="effect1_dropShadow"/>
<feBlend mode="normal" in="SourceGraphic" in2="effect1_dropShadow" result="shape"/>
</filter>
<filter id="filter12_d" x="268.627" y="14.5739" width="9.81844" height="8.3233" filterUnits="userSpaceOnUse" color-interpolation-filters="sRGB">
<feFlood flood-opacity="0" result="BackgroundImageFix"/>
<feColorMatrix in="SourceAlpha" type="matrix" values="0 0 0 0 0 0 0 0 0 0 0 0 0 0 0 0 0 0 127 0"/>
<feOffset dy="2"/>
<feColorMatrix type="matrix" values="0 0 0 0 0.996078 0 0 0 0 0.964706 0 0 0 0 0.894118 0 0 0 0.52 0"/>
<feBlend mode="normal" in2="BackgroundImageFix" result="effect1_dropShadow"/>
<feBlend mode="normal" in="SourceGraphic" in2="effect1_dropShadow" result="shape"/>
</filter>
<linearGradient id="paint0_linear" x1="336.552" y1="51.0088" x2="336.552" y2="170.437" gradientUnits="userSpaceOnUse">
<stop stop-color="#F582AE"/>
<stop offset="0.192708" stop-color="#F582AE"/>
<stop offset="0.192808" stop-color="#FEF6E4"/>
<stop offset="0.994792" stop-color="#FEF6E4"/>
</linearGradient>
</defs>
</svg>
